<svg width="26" height="26" viewBox="0 0 26 26" fill="none" xmlns="http://www.w3.org/2000/svg">
<path d="M13 2.3023C16.3398 2.3023 16.7354 2.31706 18.0488 2.3761C19.2695 2.43021 19.9287 2.63685 20.3682 2.80904C20.9492 3.03536 21.3691 3.31087 21.8037 3.74874C22.2432 4.19152 22.5117 4.60971 22.7363 5.19518C22.9072 5.63796 23.1123 6.30707 23.166 7.53211C23.2246 8.86047 23.2393 9.25898 23.2393 12.6192C23.2393 15.9844 23.2246 16.3829 23.166 17.7064C23.1123 18.9364 22.9072 19.6005 22.7363 20.0433C22.5117 20.6288 22.2383 21.0519 21.8037 21.4898C21.3643 21.9326 20.9492 22.2031 20.3682 22.4295C19.9287 22.6017 19.2647 22.8083 18.0488 22.8624C16.7305 22.9214 16.335 22.9362 13 22.9362C9.66016 22.9362 9.26465 22.9214 7.95117 22.8624C6.73047 22.8083 6.07129 22.6017 5.63184 22.4295C5.05078 22.2031 4.63086 21.9276 4.19629 21.4898C3.75684 21.047 3.48828 20.6288 3.26367 20.0433C3.09277 19.6005 2.8877 18.9314 2.83398 17.7064C2.77539 16.378 2.76074 15.9795 2.76074 12.6192C2.76074 9.25406 2.77539 8.85555 2.83398 7.53211C2.8877 6.30215 3.09277 5.63796 3.26367 5.19518C3.48828 4.60971 3.76172 4.1866 4.19629 3.74874C4.63574 3.30595 5.05078 3.03536 5.63184 2.80904C6.07129 2.63685 6.73535 2.43021 7.95117 2.3761C9.26465 2.31706 9.66016 2.3023 13 2.3023ZM13 0.0342407C9.60645 0.0342407 9.18164 0.0490003 7.84863 0.108039C6.52051 0.167077 5.60742 0.383551 4.81641 0.693502C3.99121 1.01821 3.29297 1.44624 2.59961 2.14978C1.90137 2.8484 1.47656 3.55194 1.1543 4.37848C0.84668 5.18042 0.631836 6.09551 0.573242 7.43371C0.514648 8.78176 0.5 9.20978 0.5 12.6291C0.5 16.0484 0.514648 16.4764 0.573242 17.8195C0.631836 19.1577 0.84668 20.0778 1.1543 20.8748C1.47656 21.7062 1.90137 22.4098 2.59961 23.1084C3.29297 23.807 3.99121 24.24 4.81152 24.5598C5.60742 24.8697 6.51563 25.0862 7.84375 25.1452C9.17676 25.2043 9.60156 25.219 12.9951 25.219C16.3887 25.219 16.8135 25.2043 18.1465 25.1452C19.4746 25.0862 20.3877 24.8697 21.1787 24.5598C21.999 24.24 22.6973 23.807 23.3906 23.1084C24.084 22.4098 24.5137 21.7062 24.8311 20.8797C25.1387 20.0778 25.3535 19.1627 25.4121 17.8245C25.4707 16.4813 25.4854 16.0533 25.4854 12.634C25.4854 9.21471 25.4707 8.78668 25.4121 7.44355C25.3535 6.10535 25.1387 5.18534 24.8311 4.38832C24.5234 3.55194 24.0986 2.8484 23.4004 2.14978C22.707 1.45116 22.0088 1.01821 21.1885 0.698422C20.3926 0.388471 19.4844 0.171997 18.1563 0.112959C16.8184 0.0490003 16.3936 0.0342407 13 0.0342407Z" fill="white"/>
<path d="M13 6.15948C9.45508 6.15948 6.5791 9.05728 6.5791 12.6291C6.5791 16.2009 9.45508 19.0987 13 19.0987C16.5449 19.0987 19.4209 16.2009 19.4209 12.6291C19.4209 9.05728 16.5449 6.15948 13 6.15948ZM13 16.8257C10.7002 16.8257 8.83496 14.9464 8.83496 12.6291C8.83496 10.3118 10.7002 8.43246 13 8.43246C15.2998 8.43246 17.165 10.3118 17.165 12.6291C17.165 14.9464 15.2998 16.8257 13 16.8257Z" fill="white"/>
<path d="M21.1738 5.90359C21.1738 6.73997 20.5 7.41399 19.6748 7.41399C18.8447 7.41399 18.1758 6.73505 18.1758 5.90359C18.1758 5.06721 18.8496 4.39319 19.6748 4.39319C20.5 4.39319 21.1738 5.07213 21.1738 5.90359Z" fill="white"/>
</svg>
