<svg width="577" height="94" viewBox="0 0 577 94" fill="none" xmlns="http://www.w3.org/2000/svg">
<path d="M68.094 1.226L76.212 37.019C76.212 37.183 76.13 37.306 75.966 37.388C75.884 37.47 75.761 37.47 75.597 37.388C75.433 37.306 75.31 37.183 75.228 37.019C71.62 25.867 67.192 18.159 61.944 13.895C56.614 9.467 50.013 7.253 42.141 7.253H23.937V46.613H43.125C51.817 46.613 56.163 42.513 56.163 34.313C56.163 33.985 56.286 33.821 56.532 33.821C56.778 33.903 56.942 34.067 57.024 34.313V60.758C57.024 61.086 56.901 61.25 56.655 61.25C56.409 61.168 56.245 61.004 56.163 60.758C56.163 56.166 55.138 52.927 53.088 51.041C51.038 49.073 47.717 48.089 43.125 48.089H23.937V72.935C23.937 77.527 24.142 80.93 24.552 83.144C24.962 85.358 25.782 87.162 27.012 88.556C28.242 89.786 29.677 90.606 31.317 91.016C33.039 91.344 35.745 91.508 39.435 91.508C39.845 91.508 40.091 91.631 40.173 91.877C40.091 92.041 39.845 92.205 39.435 92.369C36.237 92.369 32.629 92.287 28.611 92.123C24.675 92.041 22.666 92 22.584 92H14.343C14.261 92 12.703 92.041 9.669 92.123C6.635 92.287 3.847 92.369 1.305 92.369C1.059 92.369 0.854 92.246 0.69 92C0.772 91.754 0.977 91.59 1.305 91.508C3.109 91.426 4.421 91.344 5.241 91.262C6.143 91.098 7.086 90.893 8.07 90.647C9.136 90.401 9.874 89.991 10.284 89.417C10.694 88.761 11.104 88.105 11.514 87.449C12.006 86.711 12.334 85.604 12.498 84.128C12.662 82.57 12.785 81.012 12.867 79.454C13.031 77.896 13.154 75.723 13.236 72.935V24.965C13.154 22.177 13.031 20.004 12.867 18.446C12.785 16.888 12.662 15.371 12.498 13.895C12.334 12.337 12.006 11.23 11.514 10.574C11.104 9.836 10.694 9.18 10.284 8.606C9.874 7.94999 9.136 7.499 8.07 7.253C7.086 7.007 6.143 6.843 5.241 6.761C4.421 6.59699 3.109 6.47399 1.305 6.392C1.059 6.392 0.854 6.26899 0.69 6.02299C0.772 5.777 0.977 5.613 1.305 5.531C3.847 5.531 6.635 5.613 9.669 5.777C12.703 5.85899 14.261 5.89999 14.343 5.89999H53.334C57.762 5.89999 60.96 5.53099 62.928 4.79299C64.896 4.05499 66.413 2.86599 67.479 1.226C67.889 0.815996 68.094 0.815996 68.094 1.226ZM196.265 91.385C196.511 91.385 196.716 91.508 196.88 91.754C196.798 92 196.593 92.164 196.265 92.246C193.805 92.246 191.017 92.164 187.901 92C184.867 91.918 183.309 91.877 183.227 91.877L174.74 92C174.33 92 172.608 92.041 169.574 92.123C166.622 92.287 163.998 92.41 161.702 92.492C161.374 92.492 161.169 92.369 161.087 92.123C161.169 91.877 161.374 91.713 161.702 91.631C165.392 91.467 167.934 91.057 169.328 90.401C172.198 88.843 173.633 83.021 173.633 72.935V13.157L141.776 57.56L145.958 63.464C142.514 66.17 140.341 68.507 139.439 70.475C139.275 70.967 139.111 70.967 138.947 70.475L97.8648 16.232V70.352C97.8648 76.666 99.2998 81.75 102.17 85.604C105.04 89.458 109.017 91.385 114.101 91.385C114.347 91.385 114.511 91.467 114.593 91.631C114.675 91.795 114.675 91.959 114.593 92.123C114.511 92.287 114.347 92.369 114.101 92.369C112.297 92.369 108.853 92.287 103.769 92.123C101.309 92.041 99.0948 92 97.1268 92C95.4868 92 93.6008 92.041 91.4688 92.123C87.3688 92.287 84.4988 92.369 82.8588 92.369C82.4488 92.369 82.2848 92.205 82.3668 91.877C82.4488 91.631 82.6128 91.508 82.8588 91.508C87.1228 91.508 90.4438 89.827 92.8218 86.465C95.2818 83.021 96.5118 78.511 96.5118 72.935C96.4298 66.785 96.3888 51.082 96.3888 25.826C96.2248 20.824 96.0198 17.257 95.7738 15.125C95.5278 12.911 94.8718 11.066 93.8058 9.59C92.8218 8.114 91.6738 7.294 90.3618 7.12999C89.1318 6.884 86.9588 6.679 83.8428 6.51499C83.5968 6.51499 83.3918 6.43299 83.2278 6.269C83.1458 6.10499 83.1458 5.94099 83.2278 5.777C83.3918 5.613 83.5968 5.531 83.8428 5.531C86.4668 5.531 89.3778 5.572 92.5758 5.654L97.4958 5.89999H103.523L140.915 56.576L176.954 5.89999H183.227C183.309 5.89999 184.867 5.85899 187.901 5.777C191.017 5.613 193.805 5.531 196.265 5.531C196.511 5.531 196.716 5.654 196.88 5.89999C196.798 6.146 196.593 6.31 196.265 6.392C194.461 6.47399 193.108 6.59699 192.206 6.761C191.386 6.843 190.443 7.007 189.377 7.253C188.393 7.499 187.696 7.94999 187.286 8.606C186.876 9.18 186.425 9.836 185.933 10.574C185.523 11.23 185.236 12.337 185.072 13.895C184.908 15.371 184.744 16.888 184.58 18.446C184.498 20.004 184.416 22.177 184.334 24.965V72.812C184.416 75.6 184.498 77.773 184.58 79.331C184.744 80.889 184.908 82.447 185.072 84.005C185.236 85.481 185.523 86.588 185.933 87.326C186.425 87.982 186.876 88.638 187.286 89.294C187.696 89.868 188.393 90.278 189.377 90.524C190.443 90.77 191.386 90.975 192.206 91.139C193.108 91.221 194.461 91.303 196.265 91.385ZM243.28 92H217.942C217.86 92 216.302 92.041 213.268 92.123C210.234 92.287 207.446 92.369 204.904 92.369C204.658 92.369 204.453 92.246 204.289 92C204.371 91.754 204.576 91.59 204.904 91.508C206.708 91.426 208.02 91.344 208.84 91.262C209.742 91.098 210.685 90.893 211.669 90.647C212.735 90.401 213.473 89.991 213.883 89.417C214.293 88.761 214.703 88.105 215.113 87.449C215.605 86.711 215.933 85.604 216.097 84.128C216.261 82.57 216.384 81.012 216.466 79.454C216.63 77.896 216.753 75.723 216.835 72.935V24.965C216.753 22.177 216.63 20.004 216.466 18.446C216.384 16.888 216.261 15.371 216.097 13.895C215.933 12.337 215.605 11.23 215.113 10.574C214.703 9.836 214.293 9.18 213.883 8.606C213.473 7.94999 212.735 7.499 211.669 7.253C210.685 7.007 209.742 6.843 208.84 6.761C208.02 6.59699 206.708 6.47399 204.904 6.392C204.658 6.392 204.453 6.26899 204.289 6.02299C204.371 5.777 204.576 5.613 204.904 5.531C207.446 5.531 210.234 5.613 213.268 5.777C216.302 5.85899 217.86 5.89999 217.942 5.89999H242.296C258.368 5.89999 271.365 9.67199 281.287 17.216C291.127 24.76 296.047 35.338 296.047 48.95C296.047 62.726 291.25 73.345 281.656 80.807C272.144 88.269 259.352 92 243.28 92ZM228.643 90.647H241.435C254.555 90.647 264.846 86.834 272.308 79.208C279.934 71.582 283.747 61.496 283.747 48.95C283.747 36.404 279.893 26.318 272.185 18.692C264.559 11.066 254.063 7.253 240.697 7.253H228.643C227.905 11.435 227.536 17.913 227.536 26.687V71.213C227.536 79.987 227.905 86.465 228.643 90.647Z" fill="#40BC80"/>
<path d="M355.514 92H317.999C317.917 92 316.359 92.041 313.325 92.123C310.291 92.287 307.503 92.369 304.961 92.369C304.715 92.369 304.51 92.246 304.346 92C304.428 91.754 304.633 91.59 304.961 91.508C306.765 91.426 308.077 91.344 308.897 91.262C309.799 91.098 310.742 90.893 311.726 90.647C312.792 90.401 313.53 89.991 313.94 89.417C314.35 88.761 314.76 88.105 315.17 87.449C315.662 86.711 315.99 85.604 316.154 84.128C316.318 82.57 316.441 81.012 316.523 79.454C316.687 77.896 316.81 75.723 316.892 72.935V24.965C316.81 22.177 316.687 20.004 316.523 18.446C316.441 16.888 316.318 15.371 316.154 13.895C315.99 12.337 315.662 11.23 315.17 10.574C314.76 9.836 314.35 9.18 313.94 8.606C313.53 7.94999 312.792 7.499 311.726 7.253C310.742 7.007 309.799 6.843 308.897 6.761C308.077 6.59699 306.765 6.47399 304.961 6.392C304.715 6.392 304.51 6.26899 304.346 6.02299C304.428 5.777 304.633 5.613 304.961 5.531C307.503 5.531 310.291 5.613 313.325 5.777C316.359 5.85899 317.917 5.89999 317.999 5.89999H350.594C360.024 5.89999 367.445 7.54 372.857 10.82C378.351 14.1 381.098 18.815 381.098 24.965C381.098 29.557 379.171 33.452 375.317 36.65C368.593 42.39 357.605 45.588 342.353 46.244V46.736C353.751 46.736 363.509 48.089 371.627 50.795C381.631 53.993 386.633 59.938 386.633 68.63C386.633 75.764 383.763 81.463 378.023 85.727C372.365 89.909 364.862 92 355.514 92ZM327.593 25.457V45.998H332.882C344.526 45.998 353.423 44.235 359.573 40.709C365.723 37.183 368.798 32.017 368.798 25.211C368.798 19.553 366.502 15.166 361.91 12.05C357.4 8.852 352.07 7.253 345.92 7.253H328.7C327.962 10.615 327.593 16.683 327.593 25.457ZM333.251 47.351H327.593V69.737C327.593 79.987 327.962 86.916 328.7 90.524H349.364C356.416 90.524 362.361 88.474 367.199 84.374C371.955 80.356 374.333 75.149 374.333 68.753C374.661 60.143 369.823 54.075 359.819 50.549C357.031 49.483 354.038 48.786 350.84 48.458C345.674 47.72 339.811 47.351 333.251 47.351ZM440.925 4.547C454.619 4.547 465.607 8.565 473.889 16.601C482.253 24.555 486.435 35.092 486.435 48.212C486.435 61.086 481.966 71.828 473.028 80.438C464.172 89.048 453.143 93.353 439.941 93.353C426.657 93.353 415.915 89.376 407.715 81.422C399.515 73.468 395.415 63.013 395.415 50.057C395.415 37.265 399.802 26.482 408.576 17.708C417.35 8.934 428.133 4.547 440.925 4.547ZM442.647 91.754C451.667 91.754 459.211 88.228 465.279 81.176C471.429 74.206 474.422 64.284 474.258 51.41C474.422 39.274 471.06 28.655 464.172 19.553C457.366 10.451 449.002 5.982 439.08 6.146C430.06 6.146 422.475 9.754 416.325 16.97C410.257 24.186 407.346 34.149 407.592 46.859C407.756 59.159 411.077 69.737 417.555 78.593C424.115 87.449 432.479 91.836 442.647 91.754ZM576.477 91.508C576.887 91.508 577.051 91.672 576.969 92C576.887 92.246 576.723 92.369 576.477 92.369C574.673 92.369 572.582 92.328 570.204 92.246L566.637 92H555.198L550.401 92.246C547.203 92.328 544.374 92.369 541.914 92.369C541.586 92.369 541.422 92.246 541.422 92C541.504 91.754 541.668 91.59 541.914 91.508C546.834 91.426 549.458 90.196 549.786 87.818C550.114 85.358 548.187 81.176 544.005 75.272L526.416 50.426L509.934 71.582C505.752 76.83 503.907 81.422 504.399 85.358C504.891 89.294 507.761 91.303 513.009 91.385C513.255 91.385 513.419 91.467 513.501 91.631C513.665 91.795 513.665 91.959 513.501 92.123C513.419 92.369 513.255 92.492 513.009 92.492C511.041 92.492 507.597 92.41 502.677 92.246C501.693 92.246 500.668 92.205 499.602 92.123C498.536 92.123 497.716 92.082 497.142 92C496.65 92 496.281 92 496.035 92H495.297C494.149 92 492.837 92.041 491.361 92.123C488.409 92.287 486.4 92.369 485.334 92.369C485.088 92.369 484.965 92.246 484.965 92C484.965 91.672 485.088 91.508 485.334 91.508C488.122 91.426 491.074 90.032 494.19 87.326C497.306 84.62 501.119 80.397 505.629 74.657L525.678 49.319L506.859 22.628C502.185 16.068 498.7 11.804 496.404 9.83599C494.108 7.704 491.197 6.556 487.671 6.392C487.261 6.392 487.097 6.22799 487.179 5.89999L487.671 5.531C489.475 5.531 491.566 5.572 493.944 5.654L497.511 5.89999H508.95C509.196 5.89999 509.975 5.85899 511.287 5.777C512.681 5.695 514.403 5.654 516.453 5.654C518.503 5.572 520.43 5.531 522.234 5.531C522.562 5.531 522.726 5.654 522.726 5.89999C522.644 6.146 522.48 6.31 522.234 6.392C517.232 6.47399 514.567 7.74499 514.239 10.205C513.911 12.583 515.838 16.724 520.02 22.628L534.903 43.661L549.417 26.072C553.763 20.824 555.69 16.314 555.198 12.542C554.87 8.77 552.041 6.802 546.711 6.638C546.465 6.638 546.26 6.556 546.096 6.392C546.014 6.228 546.014 6.064 546.096 5.89999C546.26 5.654 546.465 5.531 546.711 5.531C548.679 5.531 552.123 5.613 557.043 5.777C558.109 5.777 559.175 5.818 560.241 5.89999C561.307 5.89999 562.086 5.94099 562.578 6.02299C563.152 6.02299 563.521 6.02299 563.685 6.02299H564.3C565.366 6.02299 566.637 5.98199 568.113 5.89999C571.065 5.736 573.115 5.654 574.263 5.654C574.509 5.654 574.632 5.818 574.632 6.146C574.632 6.392 574.509 6.51499 574.263 6.51499C571.475 6.597 568.523 7.95 565.407 10.574C562.291 13.198 558.396 17.38 553.722 23.12L535.764 44.891L557.289 75.272C561.799 81.668 565.243 85.973 567.621 88.187C570.081 90.237 573.033 91.344 576.477 91.508Z" fill="#FFA36E"/>
</svg>
