<svg width="26" height="26" viewBox="0 0 26 26" fill="none" xmlns="http://www.w3.org/2000/svg">
<g clip-path="url(#clip0)">
<path d="M0.616498 11.7852L6.73004 14.8552C6.9665 14.9728 7.24567 14.9644 7.47171 14.8311L12.9134 11.6435L9.61962 14.5844C9.45192 14.7345 9.35608 14.9486 9.35608 15.1743V22.3376C9.35608 23.0933 10.3134 23.4113 10.7623 22.811L13.405 19.2708L19.9405 23.0209C20.3988 23.2864 20.9863 23.0198 21.0925 22.4919L25.1686 2.02526C25.2905 1.41021 24.6832 0.908519 24.1186 1.13733L0.681081 10.3473C0.0519143 10.595 0.0112893 11.4819 0.616498 11.7852ZM23.3561 3.12731L19.7738 21.1138L13.5811 17.56C13.2436 17.3658 12.8092 17.4519 12.5696 17.7709L10.9186 19.9824V15.528L19.8259 7.57644C20.5311 6.94775 19.7207 5.82996 18.9155 6.30646L7.05087 13.2567L2.89254 11.1691L23.3561 3.12731Z" fill="white"/>
</g>
<defs>
<clipPath id="clip0">
<rect width="25" height="25.1897" fill="white" transform="translate(0.184082 0.0341797)"/>
</clipPath>
</defs>
</svg>
