<svg width="26" height="23" viewBox="0 0 26 23" fill="none" xmlns="http://www.w3.org/2000/svg">
<path d="M12.5047 11.3175L7.49727 14.2286L12.5047 11.3175ZM12.5047 11.3175L9.58677 13.9033L9.58673 13.9033C9.40838 14.0617 9.30639 14.2878 9.30639 14.5261V21.6355C9.30639 22.4339 10.325 22.7692 10.8026 22.1354L10.8026 22.1353L13.4188 18.657L19.9158 22.357C19.9159 22.357 19.916 22.357 19.916 22.3571C20.4041 22.6376 21.0289 22.3557 21.1419 21.7986L21.1419 21.7985L25.2179 1.48594L25.2179 1.48589C25.3475 0.836777 24.7021 0.306633 24.1005 0.548351C24.1004 0.548387 24.1003 0.548423 24.1002 0.548459L0.663219 9.6889L0.66319 9.68891C-0.0062151 9.95047 -0.0496641 10.8869 0.5945 11.2073L12.5047 11.3175ZM12.53 17.0731L12.5301 17.073C12.7848 16.7363 13.2469 16.6453 13.6061 16.8504L12.53 17.0731ZM12.53 17.0731L10.9689 19.1484V14.8997L19.8593 7.02293L12.53 17.0731ZM23.2894 2.64965L19.7387 20.3432L13.6062 16.8504L23.2894 2.64965ZM23.2894 2.64965L3.01615 10.5567L7.04935 12.5662L18.8904 5.68195C18.8905 5.68193 18.8905 5.6819 18.8906 5.68188C19.7477 5.17863 20.61 6.3587 19.8593 7.0229L23.2894 2.64965ZM0.594535 11.2073L6.70804 14.2542L6.70822 14.2543C6.95944 14.3782 7.25636 14.3696 7.49714 14.2287L0.594535 11.2073Z" fill="white" stroke="white" stroke-width="0.1"/>
</svg>
