<svg width="37" height="37" viewBox="0 0 37 37" fill="none" xmlns="http://www.w3.org/2000/svg">
<g clip-path="url(#clip0)">
<path d="M8.38333 18.7104L14.3015 24.6286C14.6626 24.9897 15.2482 24.9897 15.6093 24.6286C15.9705 24.2674 15.9705 23.682 15.6093 23.3208L11.2697 18.9812L27.0753 18.9812C27.5859 18.9812 28 18.5672 28 18.0565C28 17.5459 27.5859 17.1318 27.0753 17.1318L11.2697 17.1318L15.6092 12.7922C15.9703 12.4311 15.9703 11.8456 15.6092 11.4844C15.4286 11.304 15.1919 11.2136 14.9553 11.2136C14.7186 11.2136 14.482 11.304 14.3014 11.4844L8.38333 17.4026C8.02217 17.7638 8.02217 18.3492 8.38333 18.7104Z" fill="#40BC80"/>
</g>
<circle cx="18.5" cy="18.5" r="17.5" transform="rotate(-180 18.5 18.5)" stroke="#40BC80" stroke-width="2"/>
<defs>
<clipPath id="clip0">
<rect width="19.8875" height="19.8875" fill="white" transform="translate(28 28) rotate(-180)"/>
</clipPath>
</defs>
</svg>
