<svg width="320" height="479" viewBox="0 0 320 479" fill="none" xmlns="http://www.w3.org/2000/svg">
<mask id="mask0" mask-type="alpha" maskUnits="userSpaceOnUse" x="0" y="0" width="320" height="479">
<rect width="320" height="479" fill="#C4C4C4"/>
</mask>
<g mask="url(#mask0)">
</g>
<g clip-path="url(#clip0)">
<g style="mix-blend-mode:multiply">
<path d="M14.4445 -18.5201C0.800197 7.50586 -6.15385 45.5263 7.10072 72.0236C10.1191 78.0587 15.7467 83.3489 19.2515 87.0124C18.8885 80.2153 19.3944 73.5208 16.1872 67.4075C13.1471 61.6093 8.599 56.7099 4.96827 51.3C0.831664 45.1257 0.592036 37.2662 1.46825 30.1051C2.24523 37.3761 7.39602 41.0274 20.6288 52.4333C25.1841 56.3582 26.7284 48.567 17.291 42.9545C12.1813 39.9161 4.58583 37.7498 2.42192 27.9314C1.78533 25.0494 3.25215 18.1106 4.16951 13.729C5.15707 21.4518 10.2764 28.3833 16.6665 32.9212C23.7827 37.9598 32.3197 40.473 40.7551 42.593C33.9172 37.2418 32.3439 32.7063 28.0234 28.7814C21.6793 23.0223 11.6198 21.5739 6.94096 14.0539C4.77705 10.5686 5.67505 6.99541 6.7207 3.33429C8.3279 -2.28317 10.4991 -8.43552 13.1689 -13.7159C4.76253 9.28635 18.8933 16.6721 28.3961 13.0085C35.7713 10.1607 40.7261 1.37062 48.9581 1.11906C34.2392 -2.757 26.8107 3.54921 21.5655 3.16087C18.1478 2.91663 15.1924 0.259338 13.9216 -2.94506C10.8089 -10.8119 16.9835 -21.4289 22.0036 -28.1284C18.2325 -14.2386 38.4871 -7.55138 51.5166 -7.26318C55.3337 -7.17525 60.2303 -7.06534 64.0014 -7.21432C61.3171 -7.68326 59.601 -10.2429 57.7663 -12.2749C55.7266 -14.5041 53.2445 -16.2749 50.4817 -17.4721C47.7188 -18.6693 44.7371 -19.266 41.7306 -19.2235C37.7658 -19.1429 25.6102 -15.9018 23.013 -23.8909C21.3598 -28.9734 26.91 -36.1906 31.5355 -43.2125C29.3571 -36.3225 35.7278 -33.0131 42.3163 -35.3969C44.7949 -36.2932 47.104 -37.6145 49.5778 -38.5133C47.8415 -39.4954 45.909 -40.0722 43.9226 -40.2011C41.9363 -40.33 39.9465 -40.0078 38.0998 -39.2583C36.8896 -38.7576 35.6527 -38.0615 34.3699 -38.3009C26.5057 -39.7834 46.9443 -64.8128 48.8492 -77.9772C49.5996 -83.1575 46.5957 -82.669 46.2327 -80.2291C42.873 -58.3332 25.4359 -39.5025 14.4445 -18.5201Z" fill="#81C0AF"/>
</g>
</g>
<g clip-path="url(#clip1)">
<g style="mix-blend-mode:multiply">
<path d="M122.021 -47.6733C115.509 -55.4604 109.867 -56.2072 103.911 -57.2719C89.2842 -59.9092 81.9279 -54.9635 72.1542 -49.332C64.3775 -44.8444 56.6895 -41.8878 52.6096 -30.0183C51.4314 -26.6077 50.9222 -21.7911 51.0096 -18.7331C51.2746 -10.3713 53.52 1.94928 60.9096 6.33978C61.38 8.2831 62.2598 10.969 63.4269 12.6458C64.8659 14.7391 73.6377 22.4041 77.4428 24.2113C80.6096 25.7188 84.4203 27.0361 87.9742 27.6913C91.8945 28.4228 93.5848 27.7329 96.066 26.9056C99.2647 25.859 98.7096 25.7063 101.72 24.1183C105.709 22.3333 110.947 21.27 115.361 18.8242C126.173 12.8416 127.204 5.11688 131.068 -1.93874C132.986 -5.40895 135.497 -8.74035 134.917 -17.2257C134.213 -27.7585 130.794 -37.2613 122.021 -47.6733ZM59.2956 -31.7659C63.932 -42.5693 76.47 -49.4861 83.256 -50.6243C81.4603 -49.6166 77.6829 -47.0153 73.7848 -43.6506C66.076 -39.7737 62.7122 -32.1045 61.5729 -23.5068C59.891 -19.9672 58.1633 -17.2923 57.3098 -8.02965C55.5294 -15.0589 55.6612 -23.2569 59.2956 -31.7659ZM93.31 -53.1576C101.041 -54.5096 106.896 -50.691 112.476 -45.7536C121.284 -38.0344 128.712 -28.7912 127.999 -17.5866C127.545 -20.2239 126.619 -22.5976 125.377 -24.8851C122.213 -35.4346 117.884 -40.1179 111.976 -44.6389C106.266 -48.9711 97.0457 -53.6115 90.0877 -51.7542C89.5646 -51.8209 89.0386 -51.8681 88.5085 -51.893C89.2287 -52.136 91.524 -52.8536 93.3072 -53.1673C93.2753 -53.1534 93.3253 -53.1604 93.31 -53.1576ZM110.482 17.1529C108.357 18.1038 104.702 19.2351 100.368 19.589C105.423 18.3856 112.362 15.497 116.006 12.1808C117.394 10.9135 117.764 10.3888 120.361 7.21983C116.711 13.1886 113.283 15.8579 110.479 17.1543L110.482 17.1529ZM98.1934 20.1914C100.061 20.1378 101.924 19.9691 103.771 19.6862C101.148 20.4691 100.523 20.4816 98.1934 20.1914ZM66.0635 8.97575C69.5661 10.6886 69.5995 10.6414 74.0929 12.3335C80.9121 17.5152 83.0076 18.0469 86.4644 19.1893C88.3438 19.7725 90.2878 20.1221 92.2526 20.2303C84.6382 21.7197 72.0432 14.0048 66.0635 8.97575ZM66.144 3.58027C66.8379 4.87258 67.4846 6.03857 68.1007 6.92C65.5445 5.47778 63.8224 4.66991 62.3861 3.80653C61.4411 2.18664 61.3925 -0.254997 61.4411 -2.12474C62.7178 0.186413 64.0042 1.9229 66.144 3.58027ZM61.194 -20.353C61.1205 -19.3397 61.1469 -11.2583 61.7117 -7.58268C61.4008 -6.76089 61.154 -5.91626 60.9734 -5.05637C58.5393 -11.0834 58.9612 -15.4254 61.194 -20.353ZM61.677 -21.3816C62.06 -22.1659 61.9295 -21.8758 62.536 -23.1306C62.1044 -19.702 61.6353 -17.1355 61.5854 -16.7565C61.3953 -19.4924 61.5646 -20.428 61.677 -21.3816ZM77.0668 -37.6749C104.885 -59.5039 134.055 -12.5007 113.1 5.37368C106.887 10.4416 73.3158 6.17321 70.2558 -11.1639C69.4066 -17.1466 70.6389 -31.8033 77.0668 -37.6749ZM73.0507 -38.4051C74.4731 -40.1596 76.8572 -42.0238 79.5841 -43.0621C76.5602 -41.1632 74.852 -39.7196 73.0507 -38.4051ZM87.1194 -44.607C84.77 -44.1392 81.0134 -42.2473 80.3529 -41.903C78.9579 -41.4984 77.6123 -40.9398 76.341 -40.2373C82.4691 -44.6556 84.1663 -44.6139 87.1194 -44.607ZM89.9947 -46.7183C97.426 -47.5872 101.169 -46.2741 105.418 -42.3888C104.306 -42.9302 100.598 -45.7688 89.9947 -46.7183ZM117.583 3.33181C113.736 7.09074 108.829 9.43937 106.699 9.7503C117.259 5.72486 121.159 -1.95956 121.669 -13.0587C122.025 -11.0224 122.513 -7.895 122.444 -5.84064C121.575 -3.62387 119.019 1.43152 117.584 3.33181H117.583ZM121.948 -2.97841C121.794 -1.68195 121.066 -0.364655 119.974 0.659748C120.717 -0.67281 121.295 -1.70832 121.95 -2.97841H121.948ZM99.0899 12.3668C108.239 12.2141 115.243 9.63509 120.475 2.10196C117.442 9.32138 106.176 13.401 99.0899 12.3668ZM91.03 10.3722C99.681 11.3619 102.391 10.7067 105.075 10.4777C103.111 11.019 101.256 11.3521 99.1912 11.3688C92.9395 11.4035 93.7888 11.3008 91.03 10.3722ZM85.7733 10.1612C86.1896 10.1306 86.6059 10.1209 87.0223 10.1098C92.3164 11.931 93.6222 11.6672 94.5923 11.9324C90.4111 11.8047 87.7994 10.9538 85.7733 10.1612ZM67.8717 4.10635C65.9733 1.52313 64.5412 -1.84852 64.1249 -3.44897C65.3086 -1.08924 71.4063 7.44331 81.2119 8.52323C81.989 8.90912 82.5996 9.21728 84.1636 9.90298C77.7898 10.3985 73.1367 7.72925 67.8787 4.10635H67.8717ZM70.7998 8.40941C70.1545 8.07627 69.5203 7.72369 68.8876 7.36835C68.2932 6.59585 67.7579 5.77966 67.2861 4.92671C68.4615 6.33562 69.376 7.27812 70.8068 8.40803L70.7998 8.40941ZM65.2753 -13.1253C65.6528 -8.26701 69.9755 -1.05592 72.3291 1.82296C69.1665 -0.968472 64.5829 -9.01102 65.2753 -13.1253ZM101.571 11.8199C103.653 11.5673 106.577 10.8205 109.004 9.80998C111.439 9.14925 114.183 8.02491 119.248 2.82793C117.885 4.63244 117.294 5.61937 113.215 8.31086C108.982 11.0995 103.039 11.8921 101.571 11.8199ZM76.7143 3.65106C73.7418 1.51342 71.6533 -1.02816 70.0949 -5.69489C79.3523 6.93665 105.176 8.79253 109.735 7.57517C99.094 13.5148 83.3948 8.30669 76.7143 3.65106ZM76.4645 5.17796C78.1298 6.08437 79.2399 6.58408 82.1416 8.01103C81.1786 7.84307 81.4742 7.90137 80.5902 7.76951C79.1455 7.02213 77.7655 6.15575 76.4645 5.17934V5.17796ZM69.741 -3.58223C66.4965 -8.09072 66.2287 -10.8669 66.1426 -14.4343C68.1965 -8.68621 68.5684 -6.29038 69.741 -3.58084V-3.58223ZM79.3995 7.56129C72.6899 7.02549 64.4996 -0.861591 65.0158 -9.70506C68.0327 -1.93042 71.1606 2.84181 79.3995 7.56268V7.56129ZM82.4622 8.68008C84.6978 9.01878 84.0886 9.00768 86.0495 9.76002C85.7067 9.77667 85.3556 9.80721 85.0017 9.83498C84.1816 9.47684 83.9859 9.39912 82.4622 8.68148V8.68008ZM124.133 -7.13711C124.493 -9.52045 124.818 -10.6559 125.003 -12.3591C125.187 -9.72172 124.771 -8.24063 124.255 -5.75736C124.214 -6.21681 124.173 -6.67627 124.133 -7.13711ZM123.529 -14.0234C122.787 -18.4888 120.337 -25.8346 117.107 -30.7317C120.4 -27.1519 123.269 -23.2333 123.529 -14.0234ZM111.409 -37.6444C114.13 -36.4534 116.711 -33.5121 117.792 -31.1662C116.647 -32.4224 112.137 -36.9767 111.409 -37.6444ZM117.098 -29.742C120.359 -24.6061 122.757 -16.5677 123.082 -12.2633C122.401 -17.3409 117.398 -29.0563 117.094 -29.742H117.098ZM61.9365 -6.32092C62.6012 -3.03255 63.6017 -0.825497 65.2032 1.87988C63.3506 -0.0412331 62.4055 -1.92209 61.5382 -3.75019C61.5981 -4.61682 61.7313 -5.47681 61.9365 -6.32092ZM75.3654 12.8124C82.7883 15.6136 85.314 17.9164 92.1776 19.8125C84.9504 19.4932 79.8061 16.073 75.3654 12.8124ZM87.6217 17.289C85.7789 16.4686 84.1316 15.4165 82.3373 14.3226C92.179 16.6199 103.585 15.2527 111.577 13.047C110.235 13.7743 106.248 15.5566 105.218 15.9994C103.385 16.792 101.108 17.7179 94.4993 19.6709C92.4191 19.2656 89.534 18.144 87.6217 17.289ZM101.17 18.4508C104.435 17.468 111.663 14.4406 114.852 12.2405C112.812 14.0006 107.358 17.0613 101.869 18.6882C101.134 18.9102 98.1629 19.7584 96.6169 19.7986C99.3702 18.9783 99.8142 18.8561 101.17 18.4508ZM121.657 6.6521C121.131 8.522 120.225 10.2629 118.994 11.7655C117.764 13.2681 116.235 14.4997 114.506 15.3831C117.43 12.9984 119.716 9.90021 121.657 6.65349V6.6521ZM114.589 11.2328C108.916 13.7632 81.5297 20.8577 69.0749 5.58466C73.9444 8.54128 78.2408 10.765 84.9157 10.2292C89.5188 12.2017 100.237 12.8665 101.12 12.8665C105.067 12.8929 111.042 11.4674 115.805 8.0846C118.977 5.82064 120.611 3.21937 121.586 0.404343C122.17 -0.552048 123.032 -1.89988 123.611 -4.13746C123.705 1.50787 118.85 8.25256 114.589 11.2328ZM124.779 -18.9414C124.363 -22.3602 123.955 -24.416 122.548 -27.1769C125.362 -23.0987 128.672 -13.1892 125.991 -4.57888C125.613 -3.78628 124.742 -1.97067 124.144 -0.904621C126.617 -9.46215 126.007 -13.5278 124.779 -18.9414ZM111.771 -43.9268C117.197 -39.6585 120.157 -36.1189 123.011 -28.6413C121.993 -29.9762 120.852 -31.2124 119.603 -32.3336C116.273 -37.9956 103.94 -49.1793 91.5712 -51.5099C97.7174 -52.6593 106.657 -47.9398 111.771 -43.9324V-43.9268ZM89.7311 -51.0602C102.844 -49.847 114.537 -38.9464 117.015 -34.6211C112.831 -38.7174 103.224 -49.196 91.2742 -48.0772C90.0738 -48.1869 86.5643 -48.6533 81.0453 -46.9168C83.8277 -48.9059 86.5976 -50.1524 89.7311 -51.0602ZM79.0748 -46.2019C78.3573 -45.9243 77.6441 -45.6217 76.9502 -45.2761C79.6826 -47.3401 83.2588 -49.8012 86.4019 -51.0782C86.9906 -51.1395 87.5823 -51.1655 88.1741 -51.156C84.4966 -49.9136 81.6171 -48.1702 79.0748 -46.2158V-46.2019ZM58.4464 -12.2883C58.7059 -8.71119 59.5094 -6.05302 60.7194 -3.52116C60.5807 -2.5495 60.3906 -1.03371 60.3156 -0.0509491C59.3381 -2.04268 58.5056 -4.1024 57.8247 -6.21404C57.8774 -7.16488 58.1452 -10.5518 58.4464 -12.2883ZM60.2712 0.668076C60.2476 1.18583 60.2421 1.7022 60.2615 2.22134C59.2637 1.30243 59.2554 1.16501 58.9959 0.602837C58.0092 -1.63892 57.7705 -3.25603 57.7886 -5.12856C59.0889 -1.60421 59.8091 -0.24667 60.2712 0.668076ZM63.7669 7.84863C64.0805 8.00409 65.0602 8.91606 65.4085 9.19923C66.4799 10.7002 67.6383 12.137 68.8778 13.5023C66.0733 11.6298 65.2226 10.7844 63.7669 7.84863ZM66.5201 10.1043C68.3075 11.559 79.2691 19.3739 87.7175 20.6731C82.9174 20.9271 75.2266 21.5185 66.5257 10.1043H66.5201ZM127.388 -33.8119C128.707 -30.4805 129.395 -27.8751 129.563 -27.1047C132.259 -14.4731 132.338 -10.2534 129.76 -4.22352C126.939 2.32961 125.444 11.8074 116.35 17.2265C110.192 20.9063 105.082 21.3908 100.761 23.7089C98.6125 24.8457 98.6999 25.2066 95.7801 25.9562C92.909 26.7127 92.0652 26.8834 88.7971 26.0394C86.3589 25.4134 82.4136 23.2189 80.2502 21.989C78.3074 20.8785 78.2435 20.7744 76.1786 19.1226C81.4284 21.7405 89.8102 21.5504 95.9716 20.5399C100.332 20.9993 100.949 21.4005 107.838 18.7256C111.656 17.5638 116.875 15.2693 119.471 12.0351C121.737 9.22699 122.261 6.82144 122.813 4.67825C126.26 -1.25442 125.704 -0.564541 127.086 -4.81485V-4.82318C128.093 -6.9053 128.554 -7.85336 129.353 -19.2134C130.103 -29.6393 121.094 -39.1463 113.519 -46.3449C111.289 -48.4603 105.103 -53.488 100.132 -54.1681C96.4532 -54.6678 92.0833 -54.9066 85.2834 -51.6696C81.6115 -51.1782 74.5911 -50.877 64.1152 -40.2332C60.8624 -36.9462 60.1338 -34.9362 59.0334 -32.2267C58.3964 -30.6401 53.3229 -21.1456 57.2155 -6.9636C57.0448 -4.82734 57.0545 -3.38096 57.5346 -1.57368C55.0076 -6.49165 53.0814 -13.4432 52.7748 -17.3451C51.2663 -36.2077 60.8596 -41.4477 71.3341 -47.8676C82.2235 -54.5693 89.4397 -59.6011 104.259 -56.2641C108.7 -55.2925 113.034 -54.2347 117.262 -49.7651C120.93 -45.8674 125.078 -38.6258 127.388 -33.8119ZM93.31 -53.1576C93.3489 -53.1631 93.3572 -53.1645 93.31 -53.1576V-53.1576Z" fill="#FEDFD2"/>
</g>
</g>
<g clip-path="url(#clip2)">
<g style="mix-blend-mode:multiply">
<path d="M165.906 -10.8923C150.942 -10.3593 132.421 -3.79762 124.17 8.84101C122.29 11.7194 121.41 15.5711 120.699 18.0637C123.597 16.1749 126.674 14.6993 128.539 11.717C130.308 8.88912 131.295 5.61768 132.741 2.62531C134.394 -0.786709 137.792 -2.89047 141.168 -4.31954C138.169 -2.1259 137.887 1.09699 136.271 9.89144C135.716 12.9185 139.542 11.627 139.584 5.99571C139.607 2.94692 138.606 -0.987997 142.37 -4.44689C143.475 -5.46282 146.906 -6.57225 149.07 -7.27678C145.926 -4.8745 144.192 -0.832212 143.839 3.16816C143.452 7.61931 144.543 12.0619 145.78 16.3593C146.376 11.9527 147.967 10.0993 148.583 7.17683C149.485 2.88667 147.535 -1.96376 149.64 -5.95931C150.617 -7.80907 152.421 -8.31682 154.301 -8.78112C157.187 -9.49227 160.453 -10.088 163.464 -10.2401C151.178 -8.14134 151.563 0.0317914 155.62 3.33531C158.771 5.89805 163.914 5.87241 166.142 9.47663C164.061 1.93316 159.375 0.225407 158.197 -2.21047C157.425 -3.79543 157.834 -5.78751 158.917 -7.16793C161.578 -10.5538 167.839 -10.5 172.079 -9.96533C164.996 -8.11654 167.264 2.60783 170.489 8.48686C171.433 10.2101 172.644 12.4199 173.68 14.0624C173.195 12.7472 173.88 11.3321 174.303 9.99826C174.759 8.52299 174.9 6.96708 174.716 5.43179C174.532 3.89651 174.027 2.41626 173.235 1.0874C172.18 -0.658782 167.626 -5.25174 170.474 -8.43889C172.285 -10.4669 176.889 -9.82761 181.17 -9.55064C177.577 -8.77071 177.76 -5.09111 180.504 -2.76099C181.536 -1.88431 182.711 -1.1911 183.743 -0.317195C183.729 -1.34041 183.485 -2.34803 183.031 -3.2659C182.577 -4.18377 181.923 -4.98852 181.118 -5.62093C180.587 -6.03298 179.962 -6.40726 179.737 -7.0397C178.367 -10.9206 194.64 -8.17291 200.923 -10.6689C203.396 -11.6508 202.408 -12.8652 201.241 -12.407C190.741 -8.34066 177.968 -11.3259 165.906 -10.8923Z" fill="#81C0AF"/>
</g>
</g>
<g clip-path="url(#clip3)">
<g style="mix-blend-mode:multiply">
<path d="M229.857 -4.58384C215.319 -4.066 197.324 2.30904 189.308 14.5881C187.482 17.3846 186.626 21.1268 185.936 23.5485C188.752 21.7134 191.74 20.2798 193.553 17.3823C195.272 14.6349 196.23 11.4565 197.635 8.54926C199.241 5.2343 202.542 3.19038 205.823 1.80197C202.908 3.9332 202.634 7.06441 201.065 15.6087C200.526 18.5497 204.243 17.2949 204.284 11.8238C204.306 8.86171 203.334 5.03873 206.991 1.67823C208.064 0.691204 211.397 -0.386667 213.5 -1.07115C210.445 1.26279 208.761 5.19009 208.418 9.07666C208.042 13.4012 209.101 17.7174 210.303 21.8925C210.882 17.6113 212.428 15.8106 213.026 12.9713C213.903 8.80318 212.008 4.09073 214.054 0.208838C215.003 -1.58831 216.755 -2.08161 218.582 -2.5327C221.386 -3.22362 224.559 -3.80243 227.484 -3.95014C215.548 -1.91113 215.922 6.02951 219.863 9.23906C222.924 11.7289 227.921 11.704 230.086 15.2057C228.065 7.87679 223.511 6.21762 222.367 3.85104C221.617 2.31116 222.014 0.37575 223.067 -0.9654C225.652 -4.25494 231.735 -4.2027 235.854 -3.68322C228.973 -1.88703 231.176 8.53228 234.31 14.2441C235.226 15.9183 236.403 18.0652 237.409 19.661C236.939 18.3832 237.604 17.0084 238.015 15.7125C238.458 14.2792 238.595 12.7675 238.416 11.2759C238.237 9.7843 237.747 8.34616 236.977 7.05509C235.952 5.35858 231.528 0.896278 234.295 -2.20021C236.055 -4.17056 240.528 -3.54942 244.686 -3.28033C241.196 -2.52259 241.373 1.05234 244.039 3.31618C245.042 4.16792 246.184 4.84141 247.187 5.69046C247.172 4.69635 246.936 3.71739 246.495 2.82563C246.053 1.93387 245.418 1.15201 244.636 0.537593C244.12 0.137257 243.513 -0.226368 243.295 -0.840821C241.963 -4.6113 257.773 -1.9418 263.878 -4.36683C266.28 -5.32077 265.321 -6.50059 264.187 -6.05546C253.985 -2.10477 241.575 -5.00512 229.857 -4.58384Z" fill="#FDB48F"/>
</g>
</g>
<g clip-path="url(#clip4)">
<g style="mix-blend-mode:multiply">
<path d="M292.404 13.6983C295.638 12.206 298.392 10.3185 303.344 9.91659C298.549 9.00164 295.125 8.40552 290.345 8.6855C285.238 8.98557 280.984 8.49661 277.111 6.42559C271.439 3.38335 269.298 0.761751 265 -2.12777C269.731 -0.861845 274.098 -1.26373 280.853 0.583586C287.664 2.44563 292.028 6.90248 300.868 8.66406C298.459 7.45842 296.513 5.88573 294.811 4.76716C292.22 3.06453 286.686 0.181705 282.801 -4.25372C281.903 -5.27985 280.938 -6.26312 280.093 -7.3348C276.835 -11.4902 276.375 -12.8901 274.488 -15C281.707 -10.7977 286.572 -11.2022 291.581 -5.05748C295.187 -0.632773 295.03 3.88838 300.613 7.63927C302.893 9.17177 305.379 9.70225 307.99 10.4631C304.226 8.40418 303.416 4.06119 302.819 -0.158554C301.695 -8.09569 301.213 -9.44467 302.357 -10.2056C303.144 -10.7307 304.457 -10.4842 305.336 -8.45337C307.764 -2.87795 304.93 0.334419 305.221 4.17908C305.378 6.21125 306.12 8.05186 307.725 9.33118C310.517 11.5576 313.939 11.9809 320.183 15.0298C314.631 11.0405 309.51 6.25814 308.279 -0.204101C310.926 0.823374 312.644 2.34114 313.95 4.49522C317.542 10.4149 316.065 11.863 326.188 18.3213C333.393 22.9201 337.885 27.5015 342.395 34.4969C342.7 34.9698 344.562 37.3623 343.828 37.866C342.59 38.718 340.699 35.2846 340.382 34.6443C337.018 27.8659 327.166 16.0158 321.641 21.6274C318.499 24.8183 319.204 31.1988 310.972 35.4119C311.355 31.1185 311.841 26.5585 314.533 23.1719C317.091 19.9569 321.34 18.0975 325.534 19.0473C319.642 15.2964 316.937 13.9086 310.563 16.2891C304.946 18.3829 300.465 22.0038 291.851 19.2938C295.371 17.1196 298.969 14.9079 303.015 14.0171C307.779 12.9695 312.727 13.8376 317.524 14.7526C312.601 12.5302 306.375 9.28832 301.004 11.6058C295.47 13.9943 291.756 19.5189 286.058 21.5818C281.504 23.2322 276.429 22.3642 271.765 21.046C277.729 16.9039 285.803 16.7486 292.404 13.6983Z" fill="#FDB99D"/>
</g>
</g>
<g clip-path="url(#clip5)">
<g style="mix-blend-mode:multiply">
<path d="M25.5454 208.154C19.0632 206.465 12.7961 205.928 5.14801 200.588C10.9757 207.665 15.2072 212.635 22.4591 217.947C30.2073 223.621 35.7689 229.428 38.8642 237.091C43.3871 248.328 43.3114 254.723 46.0313 264.092C40.7203 256.578 33.9182 251.939 26.3849 241.153C18.787 230.279 17.8675 218.539 7.21447 205.383C9.23974 210.029 10.1511 214.658 11.2595 218.33C12.9458 223.92 17.4618 234.759 17.714 245.893C17.7709 248.468 17.9776 251.061 17.903 253.639C17.5872 263.613 16.5593 266.211 16.7346 271.553C11.3788 256.769 3.85281 251.537 4.04331 236.559C4.1816 225.774 9.87897 219.352 6.34274 207.186C4.899 202.216 1.94522 198.465 -0.909953 194.228C2.04322 201.744 -2.04029 209.062 -6.28215 215.946C-14.2599 228.895 -15.1949 231.444 -17.7703 231.186C-19.5435 231.012 -21.1449 229.08 -19.9588 225.059C-16.7244 214.002 -8.73884 212.698 -4.5082 206.729C-2.27662 203.57 -1.12284 199.991 -1.89568 196.2C-3.24012 189.603 -7.67681 184.889 -13.018 172.958C-9.81535 185.435 -8.19496 198.557 -14.2335 209.477C-16.819 204.807 -17.4679 200.531 -16.7495 195.819C-14.7828 182.865 -10.8941 182.517 -17.7212 160.958C-22.5776 145.611 -23.5305 133.537 -21.5901 117.911C-21.4586 116.855 -21.2566 111.129 -19.5858 111.271C-16.765 111.507 -18.1832 118.79 -18.4997 120.106C-21.8363 134.041 -21.9246 163.158 -7.14479 161.567C1.25942 160.663 7.96092 150.492 24.9634 154.186C19.2145 160.004 12.9943 166.088 5.00361 167.817C-2.58572 169.455 -10.9808 167.088 -15.8968 160.679C-11.9141 173.215 -9.68037 178.482 2.41795 182.631C13.0747 186.293 23.936 186.363 33.1165 200.636C25.3941 199.601 17.5147 198.528 10.5852 194.987C2.42808 190.817 -3.67762 183.625 -9.50922 176.545C-5.07739 185.687 0.00496952 197.879 10.5759 200.919C21.4698 204.051 33.5258 200.421 44.2628 204.225C52.8457 207.263 59.1355 214.607 64.2853 222.116C50.6491 221.034 38.7831 211.596 25.5454 208.154Z" fill="#FDB99D"/>
</g>
</g>
<g clip-path="url(#clip6)">
<g style="mix-blend-mode:multiply">
<path d="M345.572 161.036C344.53 131.786 331.703 95.5824 306.999 79.4537C301.372 75.78 293.843 74.0591 288.971 72.6701C292.663 78.3346 295.547 84.3479 301.377 87.994C306.905 91.4531 313.299 93.3806 319.149 96.2086C325.818 99.4398 329.93 106.08 332.724 112.681C328.436 106.817 322.136 106.266 304.945 103.109C299.028 102.023 301.553 109.502 312.56 109.584C318.52 109.629 326.212 107.673 332.973 115.031C334.958 117.19 337.127 123.896 338.504 128.127C333.808 121.98 325.907 118.592 318.087 117.901C309.387 117.146 300.703 119.277 292.303 121.695C300.916 122.86 304.539 125.97 310.252 127.174C318.638 128.938 328.119 125.125 335.929 129.241C339.545 131.151 340.537 134.677 341.445 138.352C342.835 143.992 343.999 150.377 344.297 156.262C340.194 132.247 324.218 132.999 317.761 140.93C312.751 147.088 312.801 157.141 305.756 161.497C320.501 157.43 323.84 148.27 328.601 145.966C331.699 144.457 335.593 145.257 338.291 147.375C344.91 152.577 344.805 164.815 343.76 173.103C340.146 159.258 319.183 163.69 307.691 169.995C304.323 171.839 300.003 174.206 296.792 176.231C299.363 175.285 302.129 176.623 304.737 177.449C307.62 178.341 310.662 178.616 313.663 178.256C316.664 177.897 319.557 176.911 322.155 175.362C325.568 173.299 334.546 164.398 340.776 169.965C344.74 173.506 343.49 182.505 342.949 190.872C341.424 183.849 334.232 184.206 329.677 189.57C327.964 191.587 326.609 193.885 324.9 195.902C326.9 195.874 328.87 195.398 330.664 194.51C332.458 193.622 334.031 192.345 335.268 190.771C336.073 189.732 336.805 188.511 338.041 188.072C345.627 185.393 340.256 217.202 345.135 229.484C347.054 234.318 349.428 232.387 348.532 230.106C340.584 209.581 346.419 184.613 345.572 161.036Z" fill="#81C0AF"/>
</g>
</g>
<defs>
<clipPath id="clip0">
<rect width="64" height="169" fill="white" transform="translate(0 -82)"/>
</clipPath>
<clipPath id="clip1">
<rect width="84" height="86" fill="white" transform="translate(51 -58)"/>
</clipPath>
<clipPath id="clip2">
<rect width="32.9295" height="85.8802" fill="white" transform="translate(190.127 -33.4579) rotate(60)"/>
</clipPath>
<clipPath id="clip3">
<rect width="31.9928" height="83.4372" fill="white" transform="translate(253.389 -26.5075) rotate(60)"/>
</clipPath>
<clipPath id="clip4">
<rect width="79" height="53" fill="white" transform="translate(265 -15)"/>
</clipPath>
<clipPath id="clip5">
<rect width="148.309" height="100.576" fill="white" transform="translate(30.457 282.91) rotate(-140.388)"/>
</clipPath>
<clipPath id="clip6">
<rect width="64.3676" height="167.871" fill="white" transform="translate(389.68 208.38) rotate(150)"/>
</clipPath>
</defs>
</svg>
