<svg width="41" height="41" viewBox="0 0 41 41" fill="none" xmlns="http://www.w3.org/2000/svg">
<path d="M9.76197 21.1362L16.0149 27.3892C16.3964 27.7707 17.0152 27.7707 17.3967 27.3892C17.7783 27.0076 17.7783 26.389 17.3967 26.0074L12.8116 21.4223L29.5113 21.4223C30.0508 21.4223 30.4883 20.9849 30.4883 20.4453C30.4883 19.9058 30.0508 19.4683 29.5113 19.4683L12.8116 19.4683L17.3965 14.8832C17.7781 14.5016 17.7781 13.8831 17.3965 13.5015C17.2058 13.3108 16.9557 13.2153 16.7057 13.2153C16.4556 13.2153 16.2056 13.3108 16.0148 13.5015L9.76197 19.7544C9.38039 20.136 9.38039 20.7546 9.76197 21.1362Z" fill="#40BC80"/>
<circle cx="20.5" cy="20.5" r="19.5" transform="rotate(-180 20.5 20.5)" stroke="#40BC80" stroke-width="2"/>
</svg>
