<svg width="197" height="196" viewBox="0 0 197 196" fill="none" xmlns="http://www.w3.org/2000/svg">
<path d="M19.3589 161.75C58.9704 216.254 163.043 203.783 190.667 138.008C206.857 99.4489 183.663 37.4772 155.215 13.9944C126.242 -9.91763 67.7526 0.176364 38.2891 19.1762C-5.53399 47.4214 -11.593 119.178 19.3589 161.75Z" fill="#FFC800"/>
<path d="M33.692 83.5813V95.7931H55.076V104.374H33.692V121.207H23V75H57.914V83.5813H33.692Z" fill="#40BC80"/>
<path d="M127.522 75H148.51C153.526 75 157.948 75.9682 161.776 77.9044C165.648 79.7967 168.64 82.4811 170.752 85.9576C172.908 89.4341 173.986 93.4827 173.986 98.1034C173.986 102.724 172.908 106.773 170.752 110.249C168.64 113.726 165.648 116.432 161.776 118.368C157.948 120.261 153.526 121.207 148.51 121.207H127.522V75ZM147.982 112.428C152.602 112.428 156.276 111.151 159.004 108.599C161.776 106.003 163.162 102.504 163.162 98.1034C163.162 93.7028 161.776 90.2263 159.004 87.6739C156.276 85.0775 152.602 83.7793 147.982 83.7793H138.214V112.428H147.982Z" fill="#40BC80"/>
<path d="M108.49 121.207L108.424 93.4827L94.8285 116.322H90.0105L76.4805 94.0768V121.207H66.4485V75H75.2925L92.5845 103.714L109.612 75H118.39L118.522 121.207H108.49Z" fill="#40BC80"/>
</svg>
